<svg id="Layer_1" data-name="Layer 1" xmlns="http://www.w3.org/2000/svg" viewBox="0 0 43.82435 48.69856"><path d="M16.36475,43.667C10.96777,32.65723,3.86621,14.98633,3.12061,5.50146,2.83643,2.05762,4.43457-.03125,6.06787.98486c-.81689.16944-.81689,1.29883-.63916,2.71.8877,8.356,5.894,20.38135,9.33838,28.229,6.17822,10.332,11.895,14.84863,12.42725,14.84863C26.76855,43.61035,20.377,28.98828,16.791,28.98828c-.74561,0-1.34913,1.07227-1.34913,1.63672,0,.16992-.17773.05664-.17773-.22559A3.31421,3.31421,0,0,1,18.28223,27.125c4.86474,0,11.82422,13.5498,11.82422,18.63086a6.88009,6.88009,0,0,1-1.70508,3.27441c-1.77442.96-8.41455-6.71875-11.50391-12.082,0,0,1.52686,3.501,1.98828,4.4043,1.13623,2.31445,2.37891,4.62891,2.91162,4.5166.24854-.05664.355-.28223.355-.11328,0,1.46777-1.34912,3.66992-2.16552,3.66992a.71275.71275,0,0,1-.53272-.33887A44.51846,44.51846,0,0,1,16.36475,43.667Z" transform="translate(-3.08759 -0.72722)"/><path d="M30.5459,49.08691a.71285.71285,0,0,1-.53223.33887c-.81738,0-2.166-2.20215-2.166-3.66992,0-.16895.10644.05664.35449.11328.5332.11231,1.77539-2.20215,2.91211-4.5166.46191-.90332,1.98828-4.4043,1.98828-4.4043-3.08887,5.36328-9.729,13.042-11.5044,12.082a6.88334,6.88334,0,0,1-1.7041-3.27441c0-5.08106,6.95948-18.63086,11.82373-18.63086a3.31462,3.31462,0,0,1,3.01856,3.27441c0,.28223-.17774.39551-.17774.22559,0-.56445-.60351-1.63672-1.34961-1.63672-3.58593,0-9.97753,14.62207-10.40332,17.78418.53223,0,6.249-4.5166,12.42774-14.84863,3.44336-7.84766,8.45019-19.873,9.33789-28.229.17773-1.41113.17773-2.54052-.63867-2.71,1.63281-1.01611,3.23047,1.07276,2.94629,4.5166-.74512,9.48487-7.84668,27.15577-13.24414,38.16553A44.46135,44.46135,0,0,1,30.5459,49.08691Z" transform="translate(-3.08759 -0.72722)"/></svg>