<svg id="Layer_1" data-name="Layer 1" xmlns="http://www.w3.org/2000/svg" viewBox="0 0 495.78953 157.63114"><path d="M58.24756,249.31641a3.15054,3.15054,0,0,1-2.05176,3.76074,145.72,145.72,0,0,1-20.85889,4.959q-1.71093.34423-5.30029.85449A42.6103,42.6103,0,0,1,26.104,261.626a25.16089,25.16089,0,0,1-13.33593,4.27441q-7.1814.16846-9.57471-3.59082a6.55152,6.55152,0,0,1-.5127-6.32519A12.004,12.004,0,0,1,6.1001,250.3418a24.45019,24.45019,0,0,1,9.40332-5.72754,20.14655,20.14655,0,0,1,11.45556-.59815,3.81959,3.81959,0,0,0,.855.5127,6.79667,6.79667,0,0,1,2.73536.1709q5.64258,1.19824,4.4458,6.83935v.3418a122.3579,122.3579,0,0,0,19.31982-4.61621,3.37468,3.37468,0,0,1,1.28272-.08545,6.69211,6.69211,0,0,1,1.11132.25635,2.11619,2.11619,0,0,1,.94043.68359A3.00927,3.00927,0,0,1,58.24756,249.31641ZM12.59717,259.916a18.84634,18.84634,0,0,0,6.83887-1.709q-4.96069-1.708-4.10352-5.81348a5.5685,5.5685,0,0,1,.51318-1.53857,16.0496,16.0496,0,0,0-5.30029,3.76123,10.99893,10.99893,0,0,0-2.22266,3.24805,1.53256,1.53256,0,0,0,0,1.02636Q9.00391,260.08887,12.59717,259.916Zm8.71972-6.32618h.1709a1.32671,1.32671,0,0,0,.1709-.51269C21.4292,253.30762,21.31689,253.47852,21.31689,253.58984Zm6.15528-.68359a7.586,7.586,0,0,0,1.53857-2.39307A14.42529,14.42529,0,0,0,24.22363,251.71c-.23.11426-.54248.28516-.94043.5127-.40088.22949-.71338.40039-.94043.51269h.1709A22.4358,22.4358,0,0,0,27.47217,252.90625Z" transform="translate(-2.10524 -181.38908)"/><path d="M118.60107,247.09326a2.53039,2.53039,0,0,1,2.13721.68408,3.07933,3.07933,0,0,1,1.02588,2.13721,2.89516,2.89516,0,0,1-.76953,2.22217,3.34449,3.34449,0,0,1-2.05176,1.11133,121.24031,121.24031,0,0,0-20.688,3.07812q-4.96142,1.0254-10.77148,2.56445-4.96143,5.98683-15.38819,9.06153a31.50014,31.50014,0,0,1-7.52294,1.19629q-4.9607-.17139-5.813-1.79492-.85767-1.62745,2.90674-5.04395,2.39208-2.05079,11.45507-5.2998,5.811-1.87939,10.42969-3.24805a6.65545,6.65545,0,0,0,.51318-1.88086,2.43876,2.43876,0,0,0-.34228-1.36768,2.47191,2.47191,0,0,0-1.70947-1.02588q-1.3711-.68115-4.4458,0-5.12916,1.37037-11.79688,6.83887a53.51264,53.51264,0,0,0-6.49707,7.43653q-4.27587,5.55468-11.02832,15.47363-6.75219,9.91406-11.19873,16.585-4.44433,6.668-12.65234,19.14941Q14.99243,329.5005,9.689,337.36816a3.1182,3.1182,0,0,1-1.88037,1.53907,2.79124,2.79124,0,0,1-2.3081-.3418,3.19693,3.19693,0,0,1-1.45361-1.88086,3.01054,3.01054,0,0,1,.34228-2.39355q26.844-46.16455,27.18506-46.67676,6.32739-10.771,15.90088-27.18457,9.57274-16.41358,11.28418-19.49121a3.11906,3.11906,0,0,1,1.88086-1.53907,2.78988,2.78988,0,0,1,2.3081.34229,3.19371,3.19371,0,0,1,1.45313,1.88037,3.01375,3.01375,0,0,1-.3418,2.394l-8.54883,14.70362a44.19188,44.19188,0,0,1,6.49707-7.18067q7.34913-6.15526,14.02-7.86523a16.829,16.829,0,0,1,7.86475-.1709,8.44568,8.44568,0,0,1,5.30029,4.10352,10.23955,10.23955,0,0,1,.855,4.27441q2.56494-.68115,6.83887-1.53906A136.06575,136.06575,0,0,1,118.60107,247.09326Z" transform="translate(-2.10524 -181.38908)"/><path d="M182.03125,247.09326a2.53039,2.53039,0,0,1,2.13721.68408,3.07937,3.07937,0,0,1,1.02588,2.13721,2.89516,2.89516,0,0,1-.76954,2.22217,3.34444,3.34444,0,0,1-2.05175,1.11133,121.24,121.24,0,0,0-20.688,3.07812q-4.96143,1.0254-10.77149,2.56445-4.96141,5.98683-15.38818,9.06153a31.50028,31.50028,0,0,1-7.52295,1.19629q-4.9607-.17139-5.813-1.79492-.85765-1.62745,2.90674-5.04395,2.39209-2.05079,11.45508-5.2998,5.811-1.87939,10.42969-3.24805a6.65581,6.65581,0,0,0,.51318-1.88086,2.43876,2.43876,0,0,0-.34228-1.36768,2.47194,2.47194,0,0,0-1.70948-1.02588q-1.37109-.68115-4.4458,0-5.12914,1.37037-11.79687,6.83887a53.512,53.512,0,0,0-6.49707,7.43653q-4.27588,5.55468-11.02832,15.47363-6.75221,9.91406-11.19873,16.585-4.44434,6.668-12.65235,19.14941-9.40063,14.52979-14.7041,22.39746a3.1182,3.1182,0,0,1-1.88037,1.53907,2.79126,2.79126,0,0,1-2.30811-.3418,3.197,3.197,0,0,1-1.45361-1.88086,3.01059,3.01059,0,0,1,.34229-2.39355q26.844-46.16455,27.18505-46.67676,6.3274-10.771,15.90088-27.18457,9.57276-16.41358,11.28418-19.49121a3.11906,3.11906,0,0,1,1.88086-1.53907,2.78991,2.78991,0,0,1,2.30811.34229,3.19373,3.19373,0,0,1,1.45312,1.88037,3.01374,3.01374,0,0,1-.34179,2.394l-8.54883,14.70362a44.19141,44.19141,0,0,1,6.49707-7.18067q7.34911-6.15526,14.02-7.86523a16.829,16.829,0,0,1,7.86474-.1709,8.4457,8.4457,0,0,1,5.3003,4.10352,10.2397,10.2397,0,0,1,.855,4.27441q2.56494-.68115,6.83886-1.53906A136.066,136.066,0,0,1,182.03125,247.09326Z" transform="translate(-2.10524 -181.38908)"/><path d="M240.417,248.11914a2.88475,2.88475,0,0,1,1.36768,1.96631,3.19521,3.19521,0,0,1-.3418,2.3081,2.93174,2.93174,0,0,1-1.79541,1.36817l-3.59033.85449q-10.09057,2.56494-17.26856,4.10352-7.18138,1.53808-17.78173,3.50488a88.21052,88.21052,0,0,1-17.61036,1.79492q-7.00854-.17284-9.5747-2.56445a5.2858,5.2858,0,0,1-2.22266-4.958q.345-2.90478,3.59033-5.64209a28.0346,28.0346,0,0,1,6.66846-3.24853,49.90361,49.90361,0,0,1,15.0459-3.24854,30.36771,30.36771,0,0,1,14.02,2.05176,2.56931,2.56931,0,0,1,1.53857,1.70947,3.48912,3.48912,0,0,1-.1709,2.394,2.91248,2.91248,0,0,1-1.71,1.45264,3.16408,3.16408,0,0,1-2.39355-.085,25.09944,25.09944,0,0,0-11.37012-1.36768,46.56672,46.56672,0,0,0-12.7373,2.73487q-1.71168.68555-2.99219,1.28222a10.70483,10.70483,0,0,0-2.13721,1.28321c-.79638.57129-1.19678.96972-1.19678,1.19629h.1709q4.957,4.61718,56.59278-8.20655l3.59082-1.02588A2.78968,2.78968,0,0,1,240.417,248.11914Z" transform="translate(-2.10524 -181.38908)"/><path d="M291.794,248.29053q1.70654,2.56421-.6836,4.27392Q274.18263,264.875,262.044,266.41309q-4.44727.51269-6.83887-.6836a6.35042,6.35042,0,0,1-3.59082-5.2998,42.60918,42.60918,0,0,1-10.9419,4.27343,13.36029,13.36029,0,0,1-6.32617.1709,5.33891,5.33891,0,0,1-3.93262-5.4707q.17213-4.44434,7.01026-12.13867a2.67473,2.67473,0,0,1,4.27441-.17139,3.23607,3.23607,0,0,1,.93994,2.13721,2.63659,2.63659,0,0,1-.769,2.13672q-4.78857,5.30273-5.30029,7.69433a14.5869,14.5869,0,0,0,2.73535-.34179,31.89359,31.89359,0,0,0,9.57471-3.76172,25.11672,25.11672,0,0,0,7.52343-5.98389l.1709-.1709q1.87939-2.39208,4.27442-.68408,2.39208,1.88379.68359,4.27441-3.76318,5.12989-3.76172,7.52247v.34277a6.446,6.446,0,0,0,3.41992.1709q10.25831-1.19532,26.33008-12.82324Q289.91163,245.89917,291.794,248.29053Z" transform="translate(-2.10524 -181.38908)"/><path d="M341.71777,194.9458q-3.76318,9.405-15.90136,24.44971-12.1421,15.04688-32.82715,33.16894c-.11524,0-.28614.11524-.5127.3418a13.52759,13.52759,0,0,0,.3418,4.44531,5.66924,5.66924,0,0,0,1.19726,2.22266,2.79255,2.79255,0,0,0,1.87989,1.02637,6.74743,6.74743,0,0,0,3.93261-.1709q7.18066-1.87939,18.80762-12.48145a3.04991,3.04991,0,0,1,2.22266-.769,3.15006,3.15006,0,0,1,2.05176.93994,2.67472,2.67472,0,0,1-.1709,4.27441q-12.65479,11.45655-21.20117,13.84864a15.04918,15.04918,0,0,1-6.83887.42773,9.19347,9.19347,0,0,1-5.12891-2.82129,10.83735,10.83735,0,0,1-2.56543-4.958,11.91443,11.91443,0,0,1-.68359-4.10351,36.61546,36.61546,0,0,1,.25683-4.35938,25.66538,25.66538,0,0,1,1.11133-4.78759q.85254-2.64845,1.624-4.70166a53.19561,53.19561,0,0,1,2.22265-4.9585q1.4502-2.90552,2.39356-4.70166.9375-1.79517,2.65039-4.7876,1.70653-2.989,2.64941-4.44531.939-1.4502,2.65039-4.35986l.5127-.855A161.52786,161.52786,0,0,1,318.63574,194.604q7.69337-8.54736,13.165-11.45556,7.00928-3.75879,10.25879.51318Q344.62451,187.42407,341.71777,194.9458Zm-34.708,25.98828q-8.72022,14.1936-11.627,21.20117a290.08021,290.08021,0,0,0,20.51758-20.51709,157.4732,157.4732,0,0,0,13.50684-16.8413,59.89781,59.89781,0,0,0,6.49707-12.05372q1.8794-4.44433,1.19726-5.30029c-.57226.23-1.36816.57178-2.39453,1.02588q-4.78857,2.73706-11.96777,10.686a150.50689,150.50689,0,0,0-15.2168,20.77343Z" transform="translate(-2.10524 -181.38908)"/><path d="M390.78613,214.09521a2.7704,2.7704,0,0,1,2.3086.6836,3.0778,3.0778,0,0,1,1.02539,2.13721,2.89075,2.89075,0,0,1-.76953,2.22265,2.678,2.678,0,0,1-2.05176.94043l-41.376,2.73584q-10.08984,12.65478-25.13379,28.72412Q318.80224,263.167,313.334,274.62012q-7.522,15.04248-11.45507,24.44922a2.55756,2.55756,0,0,1-1.53907,1.53906,2.97247,2.97247,0,0,1-2.30859.08594,2.85839,2.85839,0,0,1-1.624-1.625,2.92178,2.92178,0,0,1,0-2.39356q3.936-9.40429,11.28418-24.791,4.96141-10.09131,11.28515-22.39747a3.7504,3.7504,0,0,1,.6836-1.53906h.17089q2.05226-4.103,3.07813-5.813,4.78418-9.2329,10.25781-18.12353l-12.48047.68408a3.52084,3.52084,0,0,1-2.30859-.76953,2.60426,2.60426,0,0,1-.94043-2.13721,2.521,2.521,0,0,1,.68359-2.1372,3.35681,3.35681,0,0,1,2.05176-1.11133l16.92676-1.02588q12.65039-19.49121,21.71387-28.04,6.32373-5.64258,9.57519-3.41943,3.41748,2.5642-.34277,10.2583-3.42187,7.18139-12.99414,20.00439Zm-52.831,13.50684a6.93743,6.93743,0,0,0,1.28222-1.28223q.5962-.769,1.28223-1.624a16.79858,16.79858,0,0,1,1.19629-1.36816l-1.02539.17138q-.5127.68482-1.45313,2.22266A13.361,13.361,0,0,1,337.95508,227.60205Zm8.89062-10.77148q10.59814-13.50439,15.0459-21.88477-7.52637,7.52563-17.26855,22.05615Z" transform="translate(-2.10524 -181.38908)"/><path d="M396.084,248.29053q1.70655,2.56421-.68359,4.27392Q378.47265,264.875,366.334,266.41309q-4.44726.51269-6.83886-.6836a6.3504,6.3504,0,0,1-3.59082-5.2998,42.59855,42.59855,0,0,1-10.94239,4.27343,13.36016,13.36016,0,0,1-6.32617.1709,5.33912,5.33912,0,0,1-3.93164-5.4707q.17139-4.44434,7.00977-12.13867a2.67473,2.67473,0,0,1,4.27441-.17139,3.23887,3.23887,0,0,1,.94043,2.13721,2.63692,2.63692,0,0,1-.76953,2.13672q-4.78857,5.30273-5.30078,7.69433a14.58627,14.58627,0,0,0,2.73633-.34179A31.89616,31.89616,0,0,0,353.169,254.958a25.11672,25.11672,0,0,0,7.52343-5.98389l.1709-.1709q1.8794-2.39208,4.27442-.68408,2.39208,1.88379.68359,4.27441-3.76318,5.12989-3.76172,7.52247v.34277a6.446,6.446,0,0,0,3.41992.1709q10.25831-1.19532,26.33008-12.82324Q394.20166,245.89917,396.084,248.29053Z" transform="translate(-2.10524 -181.38908)"/><path d="M425.832,245.21289q1.02686,2.73707-.85449,6.32617a2.83853,2.83853,0,0,1-4.10352,1.36719,3.28964,3.28964,0,0,1-1.36816-4.103,2.00485,2.00485,0,0,0,.34277-.51269l.1709-.34229a9.63666,9.63666,0,0,0-3.41992.34229,38.26287,38.26287,0,0,0-11.45508,5.72705,54.15392,54.15392,0,0,0-11.62695,11.02832,8.59077,8.59077,0,0,1-2.39356,2.22265q-5.64258,2.39209-4.61621-3.93261a10.46064,10.46064,0,0,1,.85449-3.07715,68.879,68.879,0,0,1,8.89161-17.43994,2.67473,2.67473,0,0,1,1.96582-1.19678,3.27351,3.27351,0,0,1,2.30859.51318,3.219,3.219,0,0,1,1.19629,2.05176,3.11038,3.11038,0,0,1-.5127,2.22266,49.91529,49.91529,0,0,0-3.41992,5.47119q9.06153-7.34912,17.26856-9.57471a15.83351,15.83351,0,0,1,5.98437-.51269A6.40283,6.40283,0,0,1,425.832,245.21289Z" transform="translate(-2.10524 -181.38908)"/><path d="M497.81055,249.145a3.956,3.956,0,0,1,0,1.62451,2.99343,2.99343,0,0,1-2.05176,2.13672q-43.42969,13.33594-59.8418,9.917-5.80956-1.19531-7.35156-4.959-1.3667-3.93018,2.56445-7.52246a21.3331,21.3331,0,0,1,8.207-4.61621,44.302,44.302,0,0,1,12.13965-2.22266q5.64111-.16846,8.03516,1.36768,4.27149,3.07763.1709,6.66845a10.68426,10.68426,0,0,1-4.958,2.73535,17.3204,17.3204,0,0,1-8.292,1.28223,14.9256,14.9256,0,0,1-8.293-2.65039,9.88681,9.88681,0,0,0-2.90625,1.88086c-.57129.57129-.85449.91406-.85449,1.02637q.16845.34424,2.73535,1.02539,15.04248,2.90918,56.76367-9.74561a3.38224,3.38224,0,0,1,1.28223-.08545,3.542,3.542,0,0,1,2.05175,1.02588A2.37326,2.37326,0,0,1,497.81055,249.145Z" transform="translate(-2.10524 -181.38908)"/></svg>